<?xml version="1.0" encoding="utf-8"?>
<!-- Generator: Adobe Illustrator 16.0.0, SVG Export Plug-In . SVG Version: 6.00 Build 0)  -->
<!DOCTYPE svg PUBLIC "-//W3C//DTD SVG 1.1//EN" "http://www.w3.org/Graphics/SVG/1.1/DTD/svg11.dtd">
<svg version="1.1" id="Layer_1" xmlns="http://www.w3.org/2000/svg" xmlns:xlink="http://www.w3.org/1999/xlink" x="0px" y="0px"
	 width="50px" height="50px" viewBox="0 0 50 50" enable-background="new 0 0 50 50" xml:space="preserve">
<polygon fill-rule="evenodd" clip-rule="evenodd" fill="#827649" points="0,0 3,10 5.17,7.82 20.35,23 23,20.35 7.82,5.18 10,3 "/>
<polygon fill-rule="evenodd" clip-rule="evenodd" fill="#827649" points="0,50 3,40 5.17,42.18 20.35,27 23,29.65 7.82,44.82 10,47 
	"/>
<polygon fill-rule="evenodd" clip-rule="evenodd" fill="#827649" points="50,0 47,10 44.83,7.82 29.65,23 27,20.35 42.18,5.18 40,3 
	"/>
<polygon fill-rule="evenodd" clip-rule="evenodd" fill="#827649" points="50,50 47,40 44.83,42.18 29.65,27 27,29.65 42.18,44.82 
	40,47 "/>
</svg>
