<svg xmlns="http://www.w3.org/2000/svg" xmlns:xlink="http://www.w3.org/1999/xlink" height="64" width="64" fill="black">
	<g stroke="#3F4649" stroke-width="1" stroke-linecap="round">
		<circle id="circle1" cx="32" cy="32" r="13" fill="transparent">
			<animate id="circle1Anim" attributeName="stroke-dasharray" fill="freeze" type="translate" from="4 202" to="202 0" dur="0.5s" begin="0s; pupilAnim.end" repeatCount="1"/>
		</circle>
		<circle id="circle2" cx="32" cy="32" r="30" fill="transparent" stroke-dasharray="1 202" stroke-dashoffset="5">
			<animate id="circle2Anim" attributeName="stroke-dasharray" fill="freeze" type="translate" from="4 202" to="202 0" dur="0.5s" begin="circle1Anim.end" repeatCount="1"/>
		</circle>
		<line id="line1" x1="32" y1="2" x2="32" y2="19" stroke-dasharray="1 32" stroke-dashoffset="5">
			<animate id="line1Anim" attributeName="stroke-dasharray" fill="freeze" type="translate" from="0 32" to="32 0" dur="0.25s" begin="circle2Anim.end" repeatCount="1"/>
		</line>
		<line id="line2" x1="32" y1="62" x2="32" y2="45" stroke-dasharray="1 32" stroke-dashoffset="5">
			<animate id="line2Anim" attributeName="stroke-dasharray" fill="freeze" type="translate" from="4 32" to="32 0" dur="0.25s" begin="circle2Anim.end" repeatCount="1"/>
		</line>
		<path id="sclera1" d="M6,32 c0.01,0.011,11.646,13,26,13c14.354,0,25.99-12.987,26-13" fill="transparent" stroke-dasharray="1 64" stroke-dashoffset="5">
			<animate id="sclera1Anim" attributeName="stroke-dasharray" fill="freeze" type="translate" from="4 64" to="64 0" dur="0.35s" begin="0s; pupilAnim.end" repeatCount="1"/>
		</path>
		<path id="sclera2" d="M58,32 c-0.01-0.014-11.646-13-26-13C17.646,19,6.011,31.986,6,32" fill="transparent" stroke-dasharray="1 64" stroke-dashoffset="5">
			<animate id="sclera2Anim" attributeName="stroke-dasharray" fill="freeze" type="translate" from="4 64" to="64 0" dur="0.35s" begin="sclera1Anim.end" repeatCount="1"/>
		</path>
	</g>
	<path id="Pupil" fill="#f9d721" opacity="0" d="M32.222,25.115c-0.088-0.154-0.356-0.154-0.444,0C31.705,25.24,30,28.24,30,31.996
		s1.705,6.754,1.777,6.881C31.822,38.949,31.907,39,32,39s0.177-0.051,0.222-0.123C32.293,38.75,34,35.754,34,31.996
		C34,28.24,32.293,25.24,32.222,25.115z">
		<animate id="pupilAnim" attributeName="opacity" to="1" from="0" dur="0.2s" fill="freeze" begin="line2Anim.end" repeatCount="1" />
	</path>
	<!--
	<path id="outline" fill="transparent" d="M 32, 32 m -30, 0 a 30,30 0 1,0 60,0 a 30,30 0 1,0 -60,0" />
	<circle id="dot" cx="0" cy="0" r="1" fill="#f9d721" opacity="0">
		<animate id="dotAnim" attributeName="opacity" to="1" from="0" dur="0.1s" fill="freeze" begin="line2Anim.end" repeatCount="1" />
		<animateMotion dur="0.65" repeatCount="indefinite">
			<mpath xlink:href="#outline" />
		</animateMotion>
	</circle>
-->
</svg>