<svg xmlns="http://www.w3.org/2000/svg" xmlns:xlink="http://www.w3.org/1999/xlink" height="64" width="64">
	<g transform="translate(13,10)" fill="white">
		<polygon points="0,3 0,7 48,7 48,3 31,3 31,0 17,0 17,3 0,3">
			<animateTransform attributeName="transform" type="translate" dur="0.5s" values="0,0;0,-10;0,0" repeatCount="indefinite"/>
		</polygon>
		<polygon points="3,53 45,53 45,9 3,9 3,53 7,49 7,13 41,13 41,49 34,49 34,16 30,16 30,49 26,49 26,16 22,16 22,49 18,49 18,16 14,16 14,49 7,49 7,49"/>
	</g>
</svg>